<?xml version="1.0" encoding="UTF-8" standalone="no"?>
<!-- Created with Inkscape (http://www.inkscape.org/) -->

<svg
   width="1200"
   height="1200"
   viewBox="0 0 317.49998 317.50002"
   version="1.1"
   id="svg5"
   inkscape:version="1.1.1 (3bf5ae0, 2021-09-20)"
   sodipodi:docname="Locked.svg"
   xmlns:inkscape="http://www.inkscape.org/namespaces/inkscape"
   xmlns:sodipodi="http://sodipodi.sourceforge.net/DTD/sodipodi-0.dtd"
   xmlns="http://www.w3.org/2000/svg"
   xmlns:svg="http://www.w3.org/2000/svg">
  <sodipodi:namedview
     id="namedview7"
     pagecolor="#ffffff"
     bordercolor="#999999"
     borderopacity="1"
     inkscape:pageshadow="0"
     inkscape:pageopacity="0"
     inkscape:pagecheckerboard="0"
     inkscape:document-units="mm"
     showgrid="false"
     units="px"
     width="1200px"
     inkscape:zoom="0.2387486"
     inkscape:cx="-515.18627"
     inkscape:cy="473.30121"
     inkscape:window-width="1366"
     inkscape:window-height="715"
     inkscape:window-x="0"
     inkscape:window-y="25"
     inkscape:window-maximized="1"
     inkscape:current-layer="layer1"
     inkscape:snap-midpoints="false" />
  <g
     inkscape:label="Layer 1"
     inkscape:groupmode="layer"
     id="layer1">
    <g
       id="g1275"
       transform="matrix(4.9187629,0,0,4.9187629,-3.9716381,-5.122128)">
      <path
         fill="#ffffff"
         d="m 43.962,47.163 c 3.39,0.413 6.3,2.504 8.694,2.79 2.661,0.32 6.686,-1.43 10.79,0.629 1.056,0.53 1.923,1.166 1.6,1.957 -0.563,1.379 -1.748,1.919 -4.344,2.293 l -0.277,0.039 c -2.007,0.266 -4.164,0.331 -9.633,0.367 l -1.868,0.014 c -6.666,0.058 -10.52,0.37 -15.512,0.77 l -0.509,0.04 c -9.192,0.757 -16.53,0.636 -22.012,-0.203 L 10.725,55.834 C 6.296,55.14 3.633,53.992 2.333,52.69 1.568,51.923 1.127,51.209 1.104,50.445 1.081,49.681 2.21,48.841 2.853,48.524 c 1.79,-0.883 2.374,-1.204 5.815,-1.656 1.482,-0.195 3.702,-0.18 6.268,-0.266 9.206,-0.31 23.427,-0.122 29.026,0.56 z"
         id="path1218" />
      <path
         fill="#69cb3a"
         fill-rule="evenodd"
         d="M 46.651,48.829 C 41.433,60.64 22.548,60.259 9.408,52.199 6.898,50.659 -1.728,43.402 6.763,39.164 c 8.49,-4.237 5.77,-10.746 12.622,-18.509 7.924,-8.978 22.68,-13.582 33.059,-1.503 26.378,30.7 -4.036,25.7 -5.793,29.677 z M 11.766,17.509 c -0.47,-0.756 -0.942,-1.047 -1.406,-0.796 -0.393,0.213 -0.458,0.78 -0.249,1.688 L 9.986,18.468 A 0.354,0.354 0 0 0 9.87,18.99 l 0.067,0.09 c 0.979,1.3 1.755,1.832 2.36,1.539 0.51,-0.246 0.595,-1.293 0.334,-3.19 a 0.253,0.253 0 0 0 -0.269,-0.217 l -0.016,0.002 a 0.252,0.252 0 0 0 -0.086,0.028 z m -1.389,0.688 1.092,-0.59 -0.003,-0.004 C 11.091,17.02 10.773,16.835 10.505,16.98 l -0.013,0.007 c -0.198,0.121 -0.253,0.501 -0.127,1.15 z m 1.963,-0.653 -2.21,1.191 a 0.05,0.05 0 0 0 -0.017,0.075 l 0.065,0.087 c 0.895,1.187 1.569,1.651 1.988,1.449 0.318,-0.154 0.401,-1.088 0.18,-2.758 z m -0.452,1.91 a 0.303,0.303 0 0 0 -0.22,-0.512 0.303,0.303 0 1 0 0.04,0.604 l 0.172,0.316 0.007,0.01 a 0.101,0.101 0 0 0 0.17,-0.106 z"
         clip-rule="evenodd"
         id="path1220" />
      <path
         fill-rule="evenodd"
         d="m 43.962,47.163 c 3.39,0.413 6.3,2.504 8.694,2.79 2.661,0.32 6.686,-1.43 10.79,0.629 1.056,0.53 1.923,1.166 1.6,1.957 -0.563,1.379 -1.748,1.919 -4.344,2.293 l -0.277,0.039 c -2.007,0.266 -4.164,0.331 -9.633,0.367 l -1.868,0.014 c -6.666,0.058 -10.52,0.37 -15.512,0.77 l -0.509,0.04 c -9.192,0.757 -16.53,0.636 -22.012,-0.203 L 10.725,55.834 C 6.296,55.14 3.633,53.992 2.333,52.69 1.568,51.923 1.127,51.209 1.104,50.445 1.081,49.681 2.21,48.841 2.853,48.524 c 1.79,-0.883 2.374,-1.204 5.815,-1.656 1.482,-0.195 3.702,-0.18 6.268,-0.266 9.206,-0.31 23.427,-0.122 29.026,0.56 z m -35.37,0.345 -0.225,0.03 C 5.16,47.973 3.11,48.764 2.138,49.553 l -0.06,0.05 c -0.746,0.643 -0.816,1.366 0.256,2.434 1.172,1.167 4.162,2.485 8.472,3.156 5.396,0.841 12.651,1.085 21.762,0.354 l 0.955,-0.077 c 5.26,-0.413 9.296,-0.633 16.765,-0.686 l 2.061,-0.015 c 4.447,-0.04 6.337,-0.12 8.161,-0.374 l 0.174,-0.025 c 8.057,-1.576 2.243,-4.403 -1.092,-4.416 -2.856,-0.011 -6.287,0.792 -7.243,0.492 -3.01,-0.948 -4.557,-2.4 -8.387,-2.864 l -1.114,-0.133 -0.95,-0.045 C 26.316,46.68 15.211,46.643 8.592,47.508 Z"
         clip-rule="evenodd"
         id="path1222" />
      <path
         fill="#ffffff"
         d="m 18.684,10.891 a 2.495,2.495 0 0 0 -2.575,2.54 v 0.04 l 0.018,0.51 c 0.047,1.53 0.074,3.055 0.079,4.573 l 0.008,4.672 c 0.002,1.682 0,3.2 -0.004,4.685 l -0.007,1.577 c -0.027,5.017 -0.098,8.539 -0.23,10.072 l -0.026,0.286 c -0.16,1.874 -0.194,4.564 -0.099,8.066 a 2.604,2.604 0 0 0 2.752,2.529 l 0.044,-0.003 0.47,-0.034 c 4.401,-0.314 8.802,-0.47 13.203,-0.47 4.308,0 8.648,0.15 13.022,0.45 a 3.038,3.038 0 0 0 3.244,-3.152 l -0.003,-0.05 -0.033,-0.597 a 306.38,306.38 0 0 1 -0.456,-16.12 v -0.597 c 0,-3.916 0.183,-9.287 0.55,-16.115 a 2.712,2.712 0 0 0 -2.748,-2.857 h -0.045 l -2.236,0.068 c -5.08,0.15 -8.78,0.228 -11.1,0.235 H 31.705 C 29.337,11.189 25.67,11.107 20.702,10.955 Z"
         id="path1224" />
      <path
         fill="#ffffff"
         fill-rule="evenodd"
         d="m 45.674,10.752 c -0.179,0.098 -0.415,0.167 -0.708,0.207 0.754,0.067 1.347,0.051 1.779,-0.047 L 46.652,10.9 A 21.1,21.1 0 0 1 45.674,10.752 Z M 17.311,46.91 h 0.021 c 0.13,0.01 0.222,0.111 0.21,0.223 -0.013,0.13 -0.15,0.254 -0.3,0.264 -0.12,0.008 -0.203,-0.084 -0.19,-0.226 0.014,-0.15 0.131,-0.261 0.26,-0.262 z m 2.387,1.952 0.021,10e-4 c 0.13,0.01 0.222,0.111 0.21,0.223 -0.013,0.129 -0.15,0.254 -0.3,0.264 -0.12,0.008 -0.203,-0.084 -0.19,-0.226 0.014,-0.15 0.131,-0.261 0.26,-0.262 z m 12.645,-0.128 c -5.178,1.143 4.544,0.94 8.337,0.69 2.064,-0.136 3.712,0.895 4.659,0.96 a 3.038,3.038 0 0 0 3.244,-3.152 L 48.58,47.182 48.547,46.585 A 306.382,306.382 0 0 1 48.091,30.465 L 48.09,29.868 c 0,-3.916 0.183,-9.287 0.55,-16.115 a 2.76,2.76 0 0 0 0.003,-0.23 c -0.046,-1.482 -2.887,32.25 -16.3,35.211 z"
         clip-rule="evenodd"
         id="path1226" />
      <path
         fill="#ffffff"
         d="m 47.7,47.353 h 0.019 c 0.094,0.008 0.172,0.106 0.16,0.226 -0.012,0.133 -0.126,0.252 -0.24,0.262 -0.081,0.006 -0.149,-0.08 -0.137,-0.229 0.012,-0.152 0.107,-0.257 0.199,-0.26 z"
         id="path1228" />
      <path
         fill="#ffffff"
         fill-rule="evenodd"
         d="m 47.668,48.22 c -0.337,0.026 -0.574,-0.276 -0.544,-0.639 0.028,-0.352 0.297,-0.632 0.62,-0.607 a 0.576,0.576 0 0 1 0.513,0.64 c -0.029,0.313 -0.286,0.581 -0.589,0.605 z m 0.051,-0.867 h -0.018 c -0.092,0.002 -0.187,0.107 -0.199,0.259 -0.012,0.148 0.056,0.235 0.136,0.228 0.115,-0.009 0.23,-0.128 0.242,-0.26 0.01,-0.12 -0.067,-0.22 -0.161,-0.227 z"
         clip-rule="evenodd"
         id="path1230" />
      <path
         fill="#ffffff"
         d="m 44.494,13.08 a 2.17,2.17 0 0 1 2.165,2.304 l -0.032,0.531 a 230.075,230.075 0 0 0 -0.174,3.594 l -0.009,0.222 c -0.141,3.73 -0.146,12.556 -0.013,26.477 a 2.17,2.17 0 0 1 -2.237,2.19 L 20.389,47.663 a 2.17,2.17 0 0 1 -2.095,-1.989 l -0.02,-0.248 C 17.96,41.475 17.941,36.429 18.218,30.289 l 0.04,-0.88 c 0.141,-3.232 0.152,-7.937 0.033,-14.118 a 2.17,2.17 0 0 1 2.09,-2.21 L 20.44,13.08 Z"
         id="path1232" />
      <path
         fill="#ffffff"
         fill-rule="evenodd"
         d="m 28.489,38.668 c 1.051,0.044 2.131,-0.143 3.068,-0.6 1.173,-0.573 2.055,-1.535 2.544,-2.914 0.644,-1.816 0.407,-3.78 -0.518,-5.508 -0.823,-1.538 -2.118,-2.709 -3.311,-2.998 0,0 3.311,4.657 2.837,7.204 -0.726,3.893 -4.62,4.816 -4.62,4.816 z"
         clip-rule="evenodd"
         id="path1234" />
      <path
         fill="#ffffff"
         fill-rule="evenodd"
         d="m 29.253,33.198 c 0.512,0.212 0.668,0.606 0.469,1.183 l -0.011,0.032 c -1.297,3.559 -2.825,3.591 -1.517,0 0.158,-0.435 0.12,-0.769 -0.118,-1.001 0.419,-0.085 0.811,-0.157 1.177,-0.214 z m -8.117,-4.16 c 0.335,-0.997 0.825,-1.746 1.74,-2.338 l 0.116,-0.074 c 0.198,-0.124 0.441,-0.264 0.64,-0.168 0.25,0.122 0.615,0.566 0.393,0.74 -0.15,0.118 -0.768,0.244 -1.235,0.652 -0.55,0.483 -0.946,1.26 -0.946,1.45 0,0.62 -0.906,0.326 -0.708,-0.262 z M 20.099,14.837 c -1.152,3.16 -1.144,3.788 -1.213,3.243 -0.223,-1.762 -0.392,-2.92 -0.126,-3.623 0.336,-0.89 1.178,-1.066 1.395,-0.962 0.46,0.218 -0.056,1.342 -0.056,1.342 z M 39.038,31.08 38.655,31.07 a 10.436,10.436 0 0 0 -1.056,0.012 c -0.22,0.017 -0.386,0.047 -0.479,0.077 l -0.018,0.006 -0.002,0.009 c -0.01,0.051 -0.018,0.12 -0.021,0.203 l -10e-4,0.032 c -0.006,0.25 0.024,0.585 0.084,0.958 0.05,0.306 0.117,0.624 0.187,0.892 l 0.018,0.066 c 0.027,0.1 0.053,0.187 0.076,0.255 l 0.008,0.024 0.01,0.004 c 0.141,0.05 0.422,0.056 0.963,0.016 l 0.367,-0.029 a 6.88,6.88 0 0 1 0.606,-0.023 l 1.727,0.036 c 0.241,0.004 0.46,0.008 0.673,0.01 l 0.388,0.005 c 0.969,0.056 2.033,0.014 2.166,-0.227 0.404,-0.735 0.594,-2.25 0.404,-2.26 -0.343,-0.018 -0.758,-0.04 -0.955,-0.037 l -0.455,0.008 -0.412,0.003 c -0.189,0.002 -0.385,0.002 -0.596,0.002 l -2.366,-0.005 a 21.553,21.553 0 0 1 -0.576,-0.014 z"
         clip-rule="evenodd"
         id="path1236" />
      <path
         fill-rule="evenodd"
         d="m 20.894,10.418 -2.193,-0.07 a 3.038,3.038 0 0 0 -3.134,3.14 l 0.017,0.51 c 0.02,0.628 0.05,1.255 0.08,1.882 a 66.79,66.79 0 0 1 0.1,3.18 l 0.007,3.835 c 0.007,5.348 -0.009,14.155 -0.246,16.706 l -0.018,0.2 a 69.238,69.238 0 0 0 -0.214,7.629 l 0.013,0.497 a 3.146,3.146 0 0 0 3.377,3.052 l 0.47,-0.034 0.078,-0.005 0.047,0.078 c 0.076,0.126 0.147,0.243 0.164,0.301 0.041,0.145 0.046,0.31 0.022,0.683 l -0.025,0.349 -0.006,0.113 c -0.036,0.696 0.045,1.11 0.384,1.423 0.437,0.4 0.9,0.358 1.848,0.27 l 0.042,-0.003 0.244,-0.024 c 0.283,-0.027 0.6,-0.005 0.816,0.01 l 0.158,0.01 0.08,0.004 c 0.544,0.022 0.63,-0.157 0.678,-0.6 0.026,-0.244 -0.008,-0.436 -0.151,-0.931 l -0.107,-0.365 -0.036,-0.127 c -0.167,-0.619 -0.152,-0.928 0.066,-1.077 0.053,-0.036 0.274,-0.102 0.529,-0.178 0.262,-0.078 0.56,-0.166 0.748,-0.245 a 184.79,184.79 0 0 1 15.592,0.017 c -0.018,0.029 -0.021,0.07 -0.002,0.129 0.021,0.066 0.102,0.111 0.205,0.17 0.273,0.154 0.704,0.398 0.604,1.344 v 0.039 c 0.015,0.746 0.468,1.183 1.195,1.332 0.486,0.1 1.04,0.07 1.642,-0.035 0.298,-0.052 0.49,-0.238 0.582,-0.523 0.05,-0.157 0.069,-0.298 0.08,-0.578 0,0 -0.132,-1.46 0.606,-1.605 a 5.735,5.735 0 0 0 0.322,0.013 l 0.035,0.009 c 0.035,0.01 0.069,0.004 0.1,-0.012 l 0.056,-0.003 a 3.58,3.58 0 0 0 3.373,-3.776 L 49.088,46.556 A 305.884,305.884 0 0 1 48.633,29.868 c 0,-3.788 0.172,-8.947 0.516,-15.477 l 0.033,-0.61 a 3.255,3.255 0 0 0 -3.351,-3.428 l -1.139,0.036 c -5.643,0.17 -9.703,0.26 -12.18,0.267 h -0.397 c -2.314,-0.001 -6.054,-0.08 -11.22,-0.238 z m 23.6,40.454 c -1.253,-0.081 -2.504,-0.15 -3.752,-0.206 0.597,0.29 0.81,0.832 0.822,1.581 v 0.044 c 0,0.485 0.378,0.802 0.885,0.905 0.053,0.01 0.108,0.023 0.163,0.035 0.35,0.076 0.751,0.163 1.196,0.09 l 0.067,-0.012 c 0.307,-0.113 0.307,-1.217 0.307,-1.217 0.003,-0.09 0.007,-0.148 0.012,-0.22 l 0.007,-0.08 c 0.038,-0.401 0.122,-0.701 0.294,-0.92 z m -24.53,0.297 a 0.912,0.912 0 0 0 -0.127,-0.271 c 1.065,-0.072 2.129,-0.135 3.193,-0.189 -0.166,0.186 -0.182,0.436 -0.188,0.735 -0.005,0.257 0.047,0.532 0.157,0.918 l 0.006,0.023 0.1,0.34 c 0.123,0.422 0.16,0.598 0.15,0.746 l -0.003,0.025 c -0.015,0.137 -0.19,0.292 -0.488,0.274 l -0.053,-0.003 c -0.127,-0.019 -1.383,0.003 -1.383,0.003 -0.58,0.059 -0.86,-0.022 -1.144,-0.283 C 19.993,53.311 19.942,53 19.979,52.404 l 0.024,-0.335 c 0.03,-0.437 0.027,-0.642 -0.028,-0.857 z M 18.517,10.891 c 0.056,-0.002 0.11,-0.002 0.166,0 l 2.019,0.064 c 4.967,0.152 8.634,0.233 11.003,0.243 l 0.409,10e-4 h 0.398 c 2.32,-0.007 6.02,-0.085 11.1,-0.235 l 2.235,-0.068 0.045,-0.001 a 2.712,2.712 0 0 1 2.748,2.857 c -0.367,6.829 -0.55,12.2 -0.55,16.116 v 0.597 c 0.01,5.374 0.163,10.747 0.456,16.12 l 0.034,0.597 0.002,0.05 a 3.038,3.038 0 0 1 -3.244,3.152 189.75,189.75 0 0 0 -13.022,-0.451 c -4.4,0 -8.801,0.157 -13.202,0.471 L 18.643,50.438 18.6,50.441 A 2.604,2.604 0 0 1 15.847,47.912 C 15.753,44.41 15.786,41.72 15.946,39.846 l 0.025,-0.286 c 0.133,-1.533 0.205,-5.055 0.231,-10.073 l 0.007,-1.576 c 0.005,-1.486 0.006,-3.003 0.004,-4.685 l -0.008,-4.672 a 162.345,162.345 0 0 0 -0.08,-4.573 l -0.016,-0.51 -0.001,-0.04 a 2.495,2.495 0 0 1 2.409,-2.54 z m 28.146,4.358 a 2.17,2.17 0 0 0 -2.17,-2.17 H 20.44 l -0.058,0.002 a 2.17,2.17 0 0 0 -2.09,2.21 c 0.119,6.18 0.108,10.886 -0.033,14.117 l -0.04,0.88 c -0.277,6.14 -0.258,11.186 0.055,15.138 l 0.02,0.248 a 2.17,2.17 0 0 0 2.096,1.988 l 23.805,0.735 h 0.087 a 2.17,2.17 0 0 0 2.15,-2.19 c -0.134,-13.92 -0.13,-22.746 0.013,-26.476 l 0.009,-0.222 c 0.057,-1.387 0.116,-2.585 0.174,-3.594 l 0.032,-0.531 a 2.16,2.16 0 0 0 0.004,-0.135 z M 20.46,13.622 h 24.033 a 1.627,1.627 0 0 1 1.624,1.728 c -0.057,0.915 -0.113,2.007 -0.17,3.277 L 45.91,19.486 C 45.767,22.913 45.753,31.12 45.868,44.12 l 0.02,2.093 A 1.627,1.627 0 0 1 44.21,47.854 L 20.405,47.12 20.369,47.119 a 1.627,1.627 0 0 1 -1.535,-1.49 C 18.5,41.626 18.477,36.455 18.768,30.119 l 0.027,-0.587 c 0.137,-3.048 0.156,-7.42 0.059,-13.12 l -0.02,-1.132 a 1.627,1.627 0 0 1 1.626,-1.658 z m -0.831,-1.664 c 0.034,0.37 -0.233,0.665 -0.593,0.64 -0.33,-0.023 -0.62,-0.285 -0.653,-0.602 l -0.002,-0.023 a 0.591,0.591 0 0 1 0.544,-0.617 l 0.025,-0.003 c 0.345,-0.023 0.646,0.25 0.679,0.605 z m -0.637,-0.226 h -0.021 c -0.13,0.01 -0.222,0.111 -0.21,0.224 0.013,0.128 0.15,0.253 0.3,0.263 0.12,0.009 0.203,-0.083 0.19,-0.226 -0.014,-0.149 -0.131,-0.26 -0.26,-0.261 z m -1.92,3.103 c -0.375,0.033 -0.628,-0.328 -0.597,-0.761 0.03,-0.425 0.322,-0.766 0.683,-0.734 l 0.023,0.002 c 0.332,0.044 0.561,0.37 0.542,0.735 l -10e-4,0.026 c -0.031,0.374 -0.312,0.701 -0.65,0.732 z m 0.058,-1.117 h -0.018 c -0.115,10e-4 -0.242,0.157 -0.258,0.383 -0.017,0.226 0.08,0.365 0.185,0.355 0.14,-0.012 0.288,-0.184 0.304,-0.384 0.016,-0.19 -0.091,-0.343 -0.213,-0.354 z m 28.05,-1.76 c -0.035,0.37 0.233,0.665 0.593,0.64 0.329,-0.023 0.619,-0.285 0.652,-0.602 l 0.002,-0.023 a 0.591,0.591 0 0 0 -0.544,-0.617 l -0.024,-0.003 c -0.346,-0.023 -0.646,0.25 -0.68,0.605 z m 0.637,-0.226 h 0.02 c 0.13,0.01 0.223,0.111 0.21,0.224 -0.013,0.128 -0.15,0.253 -0.3,0.263 -0.12,0.009 -0.202,-0.083 -0.19,-0.226 0.015,-0.149 0.132,-0.26 0.26,-0.261 z m 1.385,2.482 c -0.202,-0.3 -0.08,-0.679 0.257,-0.834 0.325,-0.149 0.711,-0.025 0.864,0.286 l 0.01,0.022 a 0.591,0.591 0 0 1 -0.262,0.78 l -0.022,0.01 c -0.29,0.13 -0.663,0.01 -0.847,-0.264 z m 0.782,-0.377 -0.01,-0.018 c -0.064,-0.11 -0.22,-0.156 -0.356,-0.094 -0.13,0.06 -0.168,0.178 -0.101,0.277 0.084,0.125 0.26,0.181 0.378,0.129 0.104,-0.046 0.146,-0.176 0.089,-0.294 z m -31.18,32.876 c -0.263,0.26 -0.249,0.658 0.043,0.87 0.267,0.195 0.658,0.18 0.887,-0.04 l 0.016,-0.017 a 0.591,0.591 0 0 0 -0.02,-0.823 l -0.017,-0.017 c -0.25,-0.24 -0.655,-0.225 -0.909,0.027 z m 0.634,0.235 0.015,0.014 c 0.094,0.091 0.1,0.228 0.018,0.307 -0.094,0.09 -0.279,0.097 -0.4,0.008 -0.097,-0.07 -0.102,-0.194 0,-0.295 0.107,-0.105 0.268,-0.115 0.367,-0.033 z m 1.796,2.589 c -0.292,-0.213 -0.307,-0.611 -0.043,-0.872 0.254,-0.25 0.66,-0.267 0.909,-0.027 l 0.017,0.018 a 0.591,0.591 0 0 1 0.02,0.823 l -0.016,0.016 c -0.23,0.22 -0.62,0.236 -0.887,0.042 z m 0.606,-0.622 -0.016,-0.014 c -0.098,-0.082 -0.26,-0.071 -0.366,0.034 -0.102,0.1 -0.097,0.224 0,0.295 0.12,0.088 0.306,0.081 0.4,-0.009 0.08,-0.078 0.076,-0.215 -0.018,-0.306 z m 26.106,-0.124 c -0.303,0.305 -0.31,0.754 0.011,0.984 0.295,0.212 0.737,0.17 1,-0.09 a 0.676,0.676 0 0 0 0.013,-0.967 c -0.273,-0.267 -0.73,-0.224 -1.024,0.073 z m 0.746,0.187 0.016,0.015 c 0.112,0.11 0.108,0.299 -0.017,0.421 -0.134,0.133 -0.37,0.155 -0.513,0.053 -0.115,-0.083 -0.112,-0.258 0.037,-0.408 0.152,-0.153 0.362,-0.178 0.477,-0.08 z m 0.976,-0.759 c -0.337,0.027 -0.574,-0.275 -0.545,-0.638 0.029,-0.352 0.297,-0.632 0.62,-0.607 a 0.576,0.576 0 0 1 0.514,0.64 c -0.029,0.313 -0.286,0.58 -0.59,0.605 z m 0.05,-0.866 H 47.7 c -0.091,0.002 -0.186,0.107 -0.198,0.259 -0.012,0.148 0.056,0.234 0.136,0.228 0.114,-0.009 0.229,-0.128 0.241,-0.261 0.011,-0.12 -0.066,-0.218 -0.16,-0.226 z"
         clip-rule="evenodd"
         id="path1238" />
      <path
         fill-rule="evenodd"
         d="m 19.191,48.665 c -0.263,0.26 -0.248,0.66 0.043,0.872 0.267,0.194 0.658,0.179 0.887,-0.042 l 0.017,-0.017 a 0.591,0.591 0 0 0 -0.02,-0.822 L 20.1,48.638 c -0.25,-0.24 -0.655,-0.224 -0.909,0.027 z m 0.634,0.236 0.015,0.014 c 0.094,0.09 0.1,0.228 0.018,0.306 -0.093,0.09 -0.279,0.097 -0.4,0.009 -0.097,-0.07 -0.101,-0.194 0,-0.295 0.107,-0.105 0.269,-0.116 0.367,-0.034 z"
         clip-rule="evenodd"
         id="path1240" />
      <path
         fill="#ffffff"
         d="m 46.693,48.979 0.015,0.014 c 0.112,0.11 0.108,0.299 -0.016,0.421 -0.135,0.133 -0.37,0.155 -0.514,0.053 -0.115,-0.083 -0.112,-0.258 0.037,-0.408 0.152,-0.153 0.363,-0.178 0.478,-0.08 z"
         id="path1242" />
      <path
         fill-rule="evenodd"
         d="m 22.749,25.695 a 1.88,1.88 0 0 0 -0.378,0.188 l -0.107,0.067 -0.053,0.034 c -0.81,0.522 -1.35,1.172 -1.734,2.051 l -0.02,0.048 -0.016,-0.005 a 0.787,0.787 0 0 0 -0.293,-0.036 0.528,0.528 0 0 0 -0.477,0.379 c -0.11,0.367 -0.065,0.788 0.078,1.218 l 0.026,0.079 c 0.139,0.399 0.293,0.67 0.548,0.748 0.34,0.106 1.513,-0.36 1.922,-0.781 0.291,-0.301 0.175,-0.67 -0.103,-0.882 l -0.026,-0.019 -0.026,-0.018 -0.03,-0.02 0.02,-0.036 0.044,-0.077 c 0.166,-0.275 0.373,-0.535 0.583,-0.719 0.081,-0.07 0.175,-0.136 0.282,-0.196 0.165,-0.094 0.823,-0.352 0.934,-0.44 0.356,-0.28 0.314,-0.685 0.09,-1.036 a 1.525,1.525 0 0 0 -0.574,-0.527 c -0.223,-0.108 -0.457,-0.101 -0.69,-0.02 z m 0.478,0.46 c 0.251,0.122 0.615,0.565 0.394,0.74 -0.15,0.118 -0.769,0.244 -1.235,0.652 -0.55,0.482 -0.947,1.26 -0.947,1.45 l 0.063,0.023 c 0.343,0.132 0.474,0.24 0.392,0.325 -0.364,0.375 -1.353,0.678 -1.427,0.655 -0.072,-0.022 -0.499,-0.869 -0.328,-1.44 0.022,-0.076 0.22,-0.018 0.592,0.174 0.336,-0.996 0.825,-1.745 1.74,-2.337 l 0.117,-0.074 c 0.197,-0.124 0.44,-0.264 0.639,-0.168 z M 23.49,36.93 c -2.01,-2.197 -2.127,-5.944 0.044,-8.356 1.349,-1.5 4.52,-2.465 6.738,-1.926 1.193,0.29 2.487,1.46 3.31,2.998 0.926,1.729 1.162,3.692 0.519,5.508 -0.489,1.38 -1.371,2.34 -2.544,2.914 -0.937,0.457 -2.017,0.644 -3.069,0.6 -1.897,-0.08 -4.257,-0.928 -4.999,-1.739 z m 9.615,-7.028 C 32.348,28.489 31.17,27.424 30.144,27.175 L 30.083,27.16 c -2.024,-0.459 -4.943,0.44 -6.146,1.777 -1.98,2.2 -1.873,5.631 -0.048,7.626 0.63,0.688 2.856,1.488 4.622,1.563 0.967,0.04 1.959,-0.13 2.807,-0.546 1.048,-0.512 1.831,-1.365 2.271,-2.607 0.59,-1.663 0.372,-3.47 -0.484,-5.07 z M 32.06,35.1 c 1.2,-2.107 -0.427,-6.657 -2.7,-7.037 -2.136,-0.357 -2.946,0.162 -3.868,0.96 l -0.178,0.157 c -1.803,1.594 -1.803,5.019 -0.041,6.608 0.442,0.4 2.39,1.424 3.885,1.11 0.99,-0.207 2.37,-0.864 2.902,-1.798 z m -5.017,-6.442 c 0.114,-0.041 0.233,-0.074 0.36,-0.1 a 0.933,0.933 0 0 0 -0.044,0.125 c -0.067,0.248 -0.06,0.46 0.012,0.976 l 0.05,0.342 0.012,0.086 0.01,0.087 c 0.078,0.653 0.008,0.993 -0.284,1.181 -0.267,0.172 -0.53,0.237 -1.13,0.307 l -0.225,0.025 a 5.183,5.183 0 0 0 -0.598,0.094 l -0.079,0.016 a 2.458,2.458 0 0 0 -0.6,0.194 c 0.103,-0.933 0.485,-1.82 1.146,-2.405 0.624,-0.551 0.938,-0.773 1.37,-0.928 z m 2.228,-0.06 a 9.638,9.638 0 0 0 -0.257,-0.04 c 0.018,0.045 0.033,0.092 0.045,0.141 0.05,0.207 0.059,0.39 0.047,0.81 l -0.006,0.18 c -0.006,0.174 -0.01,0.277 -0.01,0.376 v 0.12 c 0.005,0.529 0.088,0.88 0.291,1.12 l 0.023,0.025 0.009,0.003 0.048,0.018 0.02,0.006 c 0.046,0.015 0.105,0.032 0.18,0.051 l 0.125,0.032 0.534,0.131 c 0.105,0.026 0.199,0.05 0.288,0.074 l 0.147,0.04 c 0.442,0.121 0.781,0.24 1.028,0.372 -0.368,-1.648 -1.382,-3.27 -2.512,-3.459 z m 2.57,4.671 c 0.031,-0.02 0.06,-0.04 0.087,-0.06 0.014,0.615 -0.09,1.184 -0.34,1.623 -0.36,0.631 -1.357,1.232 -2.332,1.486 0.025,-0.062 0.044,-0.13 0.06,-0.202 0.047,-0.223 0.055,-0.477 0.036,-0.838 L 29.34,35.084 29.323,34.828 c -0.034,-0.51 -0.026,-0.724 0.019,-0.775 0.2,-0.23 0.477,-0.318 1.183,-0.42 l 0.163,-0.022 c 0.59,-0.087 0.867,-0.16 1.154,-0.342 z m -4.145,2.785 a 0.678,0.678 0 0 0 0.087,0.273 5.69,5.69 0 0 1 -0.776,-0.226 c -0.593,-0.217 -1.168,-0.533 -1.371,-0.716 -0.643,-0.58 -1.014,-1.456 -1.111,-2.378 0.167,0.076 0.387,0.141 0.66,0.206 l 0.043,0.01 c 0.11,0.026 0.223,0.05 0.357,0.076 l 0.38,0.074 c 0.853,0.175 1.294,0.378 1.495,0.65 l 0.02,0.028 c 0.133,0.194 0.17,0.414 0.18,0.985 l 0.007,0.407 c 0.005,0.244 0.012,0.405 0.029,0.61 z m 0.641,-7.473 0.025,0.002 c 0.23,0.027 0.279,0.24 0.251,1.046 l -0.009,0.28 a 8.163,8.163 0 0 0 -0.003,0.226 c 0,0.505 0.06,0.897 0.223,1.211 A 0.217,0.217 0 0 0 28.723,31.321 H 28.676 L 28.672,31.32 a 0.217,0.217 0 0 0 -0.185,0.016 l -0.006,0.004 -0.019,0.003 c -0.473,0.079 -0.943,0.362 -1.195,0.736 -0.27,0.402 -0.257,0.84 0.051,1.215 -0.293,-0.155 -0.683,-0.279 -1.197,-0.388 l -0.166,-0.033 -0.22,-0.042 -0.097,-0.02 a 10.505,10.505 0 0 1 -0.26,-0.054 l -0.04,-0.01 a 3.269,3.269 0 0 1 -0.573,-0.176 l -0.022,-0.01 a 0.652,0.652 0 0 1 -0.098,-0.055 l -0.003,-0.003 0.006,-0.006 a 0.384,0.384 0 0 1 0.077,-0.055 c 0.118,-0.069 0.314,-0.132 0.582,-0.183 l 0.067,-0.015 a 4.82,4.82 0 0 1 0.419,-0.064 l 0.296,-0.033 c 0.673,-0.079 0.984,-0.156 1.334,-0.381 0.51,-0.328 0.607,-0.841 0.5,-1.697 l -0.012,-0.09 -0.021,-0.15 -0.034,-0.231 c -0.06,-0.43 -0.07,-0.614 -0.03,-0.772 l 0.004,-0.015 c 0.049,-0.178 0.172,-0.251 0.507,-0.23 z m -0.504,5.126 0.019,0.025 c 0.23,0.31 0.283,0.585 0.297,1.287 l 0.005,0.37 c 0.004,0.232 0.01,0.385 0.024,0.562 l 0.004,0.064 c 0.01,0.125 0.224,0.324 0.46,0.28 0.185,-0.036 0.256,-0.338 0.222,-1.01 l -0.005,-0.083 -0.027,-0.394 c -0.043,-0.646 -0.03,-0.86 0.118,-1.047 a 1.39,1.39 0 0 1 -1.117,-0.054 z m 1.687,-0.353 c 0.219,-0.083 0.497,-0.14 0.884,-0.196 l 0.21,-0.03 c 0.49,-0.072 0.727,-0.13 0.928,-0.248 l 0.037,-0.023 c 0.228,-0.145 0.25,-0.173 0.148,-0.255 l -0.032,-0.025 c -0.18,-0.135 -0.524,-0.27 -1.02,-0.409 L 30.569,32.14 c -0.113,-0.031 -0.23,-0.061 -0.367,-0.095 l -0.57,-0.14 a 7.004,7.004 0 0 1 -0.265,-0.07 c 0.441,0.466 0.514,0.991 0.21,1.44 l -0.016,0.024 a 1.147,1.147 0 0 1 -0.041,0.055 z m -0.97,-1.586 0.03,-0.004 0.022,0.013 c 0.71,0.432 0.867,0.902 0.605,1.27 -0.261,0.368 -0.834,0.494 -1.246,0.234 -0.476,-0.302 -0.556,-0.631 -0.334,-0.96 0.187,-0.277 0.56,-0.497 0.922,-0.553 z"
         clip-rule="evenodd"
         id="path1244" />
      <path
         fill="none"
         stroke="#000000"
         stroke-width="0.105486"
         d="m 35.704,30.588 c 0.02,-0.074 0.039,-0.094 0.039,-0.095 0.07,-0.05 0.213,-0.101 0.453,-0.135 0.231,-0.033 0.515,-0.045 0.827,-0.046 0.31,0 0.64,0.01 0.966,0.022 l 0.057,0.002 c 0.304,0.01 0.603,0.02 0.867,0.021 l 0.947,0.003 c 0.78,0.002 1.572,0.005 2.34,-0.003 l 0.142,-0.003 a 21.53,21.53 0 0 1 1.137,0 c 0.281,0.01 0.557,0.028 0.782,0.06 0.113,0.017 0.208,0.036 0.283,0.057 a 0.44,0.44 0 0 1 0.123,0.05 0.36,0.36 0 0 1 0.092,0.15 c 0.037,0.09 0.067,0.212 0.089,0.359 0.042,0.294 0.043,0.658 0,1.017 -0.041,0.36 -0.124,0.696 -0.237,0.94 -0.121,0.263 -0.233,0.327 -0.286,0.333 -1.35,0.147 -3.631,0.097 -5.447,0.057 l -0.591,-0.013 a 7.204,7.204 0 0 0 -0.695,0.029 l -0.164,0.013 c -0.173,0.014 -0.339,0.027 -0.498,0.034 -0.21,0.009 -0.392,0.005 -0.544,-0.02 a 0.708,0.708 0 0 1 -0.295,-0.107 4.016,4.016 0 0 1 -0.13,-0.396 9.895,9.895 0 0 1 -0.21,-0.986 5.812,5.812 0 0 1 -0.087,-1.007 c 0.003,-0.143 0.018,-0.256 0.04,-0.336 z m 0.398,2.747 z"
         id="path1246" />
      <path
         fill="none"
         stroke="#000000"
         stroke-width="0.529"
         d="m 111.477,89.041 c 0.787,0 1.584,0.004 2.386,0.006 1.65,0.006 3.32,0.012 4.955,0.002 l 0.908,-0.008 c 0.078,0 0.194,-0.003 0.34,-0.006 1.365,-0.029 5.393,-0.114 6.28,0.558 1.449,1.1 0.872,8.026 -1.2,8.251 -3.44,0.374 -9.219,0.247 -13.768,0.147 -0.514,-0.011 -1.011,-0.023 -1.488,-0.032 -0.663,-0.014 -1.376,0.044 -2.08,0.101 -1.578,0.128 -3.112,0.252 -3.927,-0.44 -0.421,-0.358 -2.042,-7.165 -0.78,-8.1 0.965,-0.714 3.731,-0.618 6.216,-0.532 0.617,0.021 1.217,0.042 1.768,0.05 h 10e-4 l 0.39,0.003 z m -1.662,1.327 0.37,0.012 c 0.092,0.565 0.102,1.556 0.036,3.017 l -0.048,1.056 c -0.043,0.987 -0.059,1.659 -0.03,2.149 l -0.321,-0.007 c -0.447,-0.006 -0.9,0.014 -1.522,0.06 l -0.923,0.072 c -1.359,0.1 -2.064,0.085 -2.418,-0.041 l -0.025,-0.01 -0.021,-0.06 c -0.058,-0.17 -0.124,-0.389 -0.192,-0.64 l -0.045,-0.165 a 24.56,24.56 0 0 1 -0.469,-2.242 c -0.151,-0.938 -0.227,-1.778 -0.211,-2.406 l 0.002,-0.08 c 0.008,-0.21 0.026,-0.383 0.052,-0.512 l 0.004,-0.022 0.047,-0.016 c 0.234,-0.074 0.648,-0.15 1.202,-0.193 0.69,-0.054 1.513,-0.06 2.654,-0.031 l 0.963,0.029 z m 4.344,6.318 -2.634,-0.056 a 7.685,7.685 0 0 1 -0.028,-0.564 v -0.047 c -0.005,-0.345 0.001,-0.675 0.026,-1.254 l 0.076,-1.703 c 0.047,-1.17 0.049,-2.02 -0.029,-2.658 l 5.637,0.013 0.873,-0.002 c -0.086,1.695 0.051,4.66 0.228,6.317 -0.476,0 -0.97,-0.003 -1.482,-0.008 l -0.974,-0.011 c -0.538,-0.007 -1.086,-0.016 -1.693,-0.027 z m 5.533,0.042 c 2.094,-0.018 3.775,-0.086 5.079,-0.215 l 0.122,-0.013 0.016,-0.017 c 0.07,-0.079 0.15,-0.205 0.234,-0.375 l 0.031,-0.065 c 0.245,-0.53 0.438,-1.3 0.538,-2.155 0.1,-0.845 0.098,-1.7 0,-2.377 a 3.4,3.4 0 0 0 -0.181,-0.747 l -0.02,-0.048 -0.016,-0.032 -0.054,-0.017 a 4.594,4.594 0 0 0 -0.591,-0.121 17.112,17.112 0 0 0 -1.833,-0.146 44.153,44.153 0 0 0 -2.134,-0.017 l -1.143,0.021 -0.324,0.002 c -0.011,0.185 -0.019,0.404 -0.022,0.65 v 0.08 a 43.22,43.22 0 0 0 0.065,2.427 l 0.01,0.186 c 0.04,0.727 0.091,1.478 0.146,2.139 l 0.034,0.384 c 0.014,0.165 0.03,0.318 0.044,0.456 z m -6.001,-4.022 0.124,0.178 c 0.142,0.2 0.276,0.377 0.404,0.533 -0.172,0.373 -0.262,0.792 -0.29,1.332 a 0.357,0.357 0 0 0 0.71,0.038 c 0.017,-0.311 0.055,-0.568 0.123,-0.796 0.394,0.345 0.739,0.473 1.101,0.48 h 0.07 a 0.356,0.356 0 0 0 0.037,-0.71 l -0.036,-0.002 h -0.06 c -0.232,-0.005 -0.466,-0.103 -0.785,-0.425 0.103,-0.145 0.229,-0.29 0.378,-0.443 l 0.382,-0.378 a 0.35602984,0.35602984 0 1 0 -0.502,-0.505 l -0.32,0.315 a 5.483,5.483 0 0 0 -0.41,0.454 l -0.13,-0.175 a 16.026,16.026 0 0 1 -0.21,-0.3 0.35629517,0.35629517 0 1 0 -0.587,0.404 z m 9.72,-0.34 0.002,-0.217 a 0.35600878,0.35600878 0 1 0 -0.712,-0.005 c -0.002,0.216 -0.007,0.41 -0.016,0.583 A 5.46,5.46 0 0 0 122.09,92.58 l -0.44,-0.082 a 0.356,0.356 0 0 0 -0.134,0.699 l 0.528,0.1 c 0.21,0.043 0.394,0.093 0.562,0.155 -0.085,0.445 -0.224,0.657 -0.414,0.791 l -0.05,0.034 -0.029,0.022 a 0.356,0.356 0 0 0 0.428,0.568 l 0.058,-0.04 c 0.297,-0.207 0.511,-0.506 0.645,-1.013 0.183,0.151 0.359,0.343 0.546,0.592 a 0.356,0.356 0 0 0 0.568,-0.429 c -0.325,-0.432 -0.634,-0.729 -0.985,-0.943 0.019,-0.2 0.03,-0.422 0.037,-0.667 z"
         clip-rule="evenodd"
         transform="matrix(0.39806,0,0,0.39806,-5.467,-5.305)"
         id="path1248" />
      <path
         fill="#69cb3a"
         fill-rule="evenodd"
         d="m 37.476,31.45 -0.022,0.084 a 4.036,4.036 0 0 1 -0.079,0.254 c 0.115,0.116 0.206,0.26 0.29,0.459 a 0.142,0.142 0 1 1 -0.26,0.11 1.346,1.346 0 0 0 -0.155,-0.28 c -0.1,0.182 -0.212,0.277 -0.347,0.329 l -0.026,0.01 a 0.142,0.142 0 0 1 -0.11,-0.261 l 0.013,-0.006 0.023,-0.008 c 0.086,-0.033 0.16,-0.102 0.236,-0.266 a 1.541,1.541 0 0 0 -0.202,-0.114 l -0.195,-0.09 a 0.142,0.142 0 1 1 0.12,-0.256 l 0.162,0.074 c 0.079,0.037 0.15,0.074 0.215,0.114 0.02,-0.066 0.04,-0.14 0.063,-0.224 a 0.142,0.142 0 1 1 0.274,0.071 z"
         clip-rule="evenodd"
         id="path1250" />
    </g>
  </g>
  <defs
     id="defs1982" />
</svg>
